<?xml version="1.0" encoding="UTF-8"?><svg id="Layer_1" xmlns="http://www.w3.org/2000/svg" viewBox="0 0 1080 1080"><defs><style>.cls-1{fill:none;}.cls-2{fill:#fff;}.cls-3{fill:#bc70a8;}.cls-4{fill:#181818;}</style></defs><path class="cls-3" d="M388.81653,715.40539c-2.06099,0-3.73202-1.67042-3.73202-3.73202v-111.3143c0-2.0616,1.67103-3.73202,3.73202-3.73202s3.73202,1.67042,3.73202,3.73202v111.3143c0,2.0616-1.67103,3.73202-3.73202,3.73202Z"/><path class="cls-3" d="M388.81653,471.13059c-2.06099,0-3.73202-1.67042-3.73202-3.73202v-44.83526c0-2.0616,1.67103-3.73202,3.73202-3.73202s3.73202,1.67042,3.73202,3.73202v44.83526c0,2.0616-1.67103,3.73202-3.73202,3.73202Z"/><path class="cls-3" d="M388.81653,291.78954c-2.06099,0-3.73202-1.67042-3.73202-3.73202v-95.85533c0-2.0616,1.67103-3.73202,3.73202-3.73202s3.73202,1.67042,3.73202,3.73202v95.85533c0,2.0616-1.67103,3.73202-3.73202,3.73202Z"/><path class="cls-4" d="M948.49304,419.25993c-1.15693-.34832-2.36361-.67176-3.62006-.98277-4.67747-1.44305-8.2602-3.30906-10.94726-5.46119-12.42763-9.88985-5.62291-25.60166.38564-32.39393l-.07464-.08708c2.74925-2.30141,4.42866-5.44875,4.39134-8.96929-.0622-7.46404-6.79228-15.37592-15.73668-11.96734l-.01244-.03732c-8.96929,2.68705-17.93858-.89568-20.33951-8.85733-4.1301-13.79603-25.62654-24.64377-25.62654-24.64377l-1.28133-.34832c9.56641-9.21809,25.09161-14.36828,42.66943-13.16159,38.15368,2.97318,36.36231,27.11935,60.19748,67.64908,8.96929,15.25152,23.47441,37.569.07464,60.94389-7.98652-10.37502-16.14721-17.51561-30.08008-21.68304Z"/><path class="cls-4" d="M844.73045,642.24812c9.69081,5.15019,18.46106,2.23921,26.6093-6.23247l40.03213-40.21874,2.21433,2.21433,71.45574,13.18647,1.96553.26124c-1.90333,18.33666-7.93676,34.67047-18.27446,45.94117l-54.81093-.94545-34.85707,40.23118c-.16172,2.31385-.33588,4.64014-.53492,6.954-5.22483,60.49604-23.68589,120.88013-35.74031,144.16793l-6.56836,1.03253-1.65453-.29856-.14928-.02488-8.93197-1.64209-41.21394-7.60088-9.35493-1.72917c-3.55786-53.04444-2.04017-107.03433,3.60762-161.80795l27.62939-37.70584,3.39614-1.18181c3.02294,10.07645,22.46676,11.24582,32.59297,5.32435l2.58753.07464Z"/><path class="cls-4" d="M845.09121,847.44702l-1.65453,1.86601c.29856-.5598.60956-1.14449.933-1.75405l.72152-.11196Z"/><path class="cls-4" d="M842.7898,847.80778l1.57989-.2488c-.32344.60956-.63444,1.19425-.933,1.75405l-4.87651,5.47363c1.28133-1.67941,2.69949-4.03058,4.22962-6.97888Z"/><path class="cls-4" d="M838.39845,854.97326l.16172-.1866c-.04976.07464-.09952.13684-.14928.21148l-.01244-.02488Z"/><path class="cls-4" d="M838.39845,854.97326l.01244.02488c-.09952.1244-.19904.2488-.311.36076,0,0-.01244-.01244-.01244-.02488l.311-.36076Z"/><path class="cls-4" d="M838.08745,855.33402c0,.01244.01244.02488.01244.02488-.44784.57224-.88324,1.04497-1.30621,1.41817l1.29377-1.44305Z"/><path class="cls-4" d="M978.57288,444.6748c-.95609,0-1.91096-.36446-2.63987-1.09458-1.45661-1.45782-1.45539-3.8207.00243-5.27731,20.55405-20.53218,9.31547-39.54338.28549-54.82012l-.93908-1.59267c-6.37675-10.84254-10.89478-20.42285-14.8807-28.87699-10.96402-23.25102-16.4673-34.92209-42.39098-36.94238-15.88538-1.08972-30.7758,3.44167-39.78878,12.12785-6.78372,6.53954-9.77104,14.79931-8.64001,23.88396,1.15168,9.25837-9.16726,21.65349-16.60579,26.20796,2.23897,1.35942,5.29432,2.79416,6.97688,3.04199l3.33841.4908-.15307,3.36999c-.8018,17.65177,6.49094,19.53115,15.38122,20.0669,3.96163.24783,10.88141,7.57824,11.28231,11.08794.20167,1.64491.26484,3.27645.19559,5.1048-.01944.60621-.04981,1.20027-.08018,1.76518-.18101,3.40765-.22839,4.28964,2.96666,6.41562,11.89217,1.08608,30.92158-8.18688,37.62877-18.48152,1.12495-1.7263,3.4356-2.21467,5.16433-1.08972,1.7263,1.12495,2.21467,3.43681,1.08972,5.16433-8.42256,12.92722-31.04064,23.68472-45.6723,21.71545l-.80909-.10934-.68882-.43613c-7.07043-4.47672-7.41423-8.28163-7.1336-13.57474.02794-.51267.0571-1.05328.07411-1.62547.05102-1.33755.01458-2.50867-.1142-3.681-.66088-1.26223-3.49269-4.13171-4.761-4.83146-10.39912-.69732-21.97057-4.3443-22.04346-24.902-4.77436-1.73602-12.29307-5.62597-12.42913-10.18287-.05831-1.92918,1.08365-4.24347,4.46093-4.94809,1.14803-.24783,5.10237-2.99947,8.93158-7.60982,3.8037-4.5812,5.94791-9.19277,5.59317-12.03674-1.41287-11.34427,2.44549-22.06168,10.86684-30.18052,10.66517-10.27642,27.26731-15.44804,45.51436-14.19795,30.28014,2.36045,37.56681,17.81335,48.59644,41.20408,3.91911,8.30958,8.35938,17.72709,14.56362,28.27685l.93058,1.57688c9.24501,15.63998,23.21579,39.27489-1.43595,63.89869-.72891.72891-1.68257,1.09215-2.63744,1.09215ZM882.38954,417.22526c.00121.00972.00243.02065.00364.03037-.00121-.00972-.00243-.02065-.00364-.03037Z"/><path class="cls-4" d="M870.9748,641.67248l-26.95631-35.10431,2.99461-3.09179,75.08139-79.74156,16.33852-60.63682c.53575-1.99114,2.59128-3.1659,4.57391-2.63258,1.98992.53575,3.16954,2.58399,2.63258,4.57391l-16.82689,62.44695-.64144.68275-74.31725,78.93004,17.84979,23.26074,87.81666-88.22242c1.24036-4.38075,2.51717-8.77729,3.79398-13.16898,9.13324-31.42939,18.57506-63.92056,11.89095-86.27866-7.05342-9.05671-14.55998-15.89996-27.7812-19.8543-1.02776-.30979-2.15271-.61471-3.44775-.93543l.75442-3.65791-.8917,3.62268c-1.99964-.49201-3.22664-2.51231-2.73706-4.51317.4908-2.00086,2.50138-3.22664,4.50588-2.73706.01336.00243.10205.02551.11663.02916,1.46268.36203,2.70547.69975,3.84622,1.04356,16.29114,4.87155,24.98825,13.9234,31.95907,22.97889l.40333.5236.19924.63051c7.73252,24.53269-2.12113,58.44037-11.65041,91.23039-1.36185,4.68568-2.72491,9.375-4.04059,14.04488l-.26362.93422-95.20295,95.64273Z"/><path class="cls-4" d="M812.54658,611.16031l-5.08415-54.31474.18344-.66209,30.08455-108.13747.07411-.18587c3.99443-10.03466,15.00462-23.42474,44.76966-30.23641,2.00086-.45678,4.01022.79573,4.47065,2.8063.45921,2.00936-.79694,4.01022-2.8063,4.47065-11.97721,2.7407-32.98197,9.69936-39.42675,25.5398l-29.79056,107.08055,4.2702,45.60426,24.4197-1.97656,3.11366-59.79736c.10812-2.05796,1.83928-3.63726,3.92154-3.53278,2.05796.10691,3.63969,1.86237,3.53278,3.92154l-3.45382,66.3211-38.27872,3.09908Z"/><path class="cls-4" d="M859.33654,563.91478c-1.49791,0-2.91078-.90749-3.48298-2.38961l-.605-1.56716c-8.98139-23.24373-18.26892-47.27954-13.28803-73.36359.38632-2.02516,2.33373-3.36149,4.36496-2.96545,2.02516.38632,3.35299,2.34102,2.96545,4.36496-4.57999,23.98722,3.92032,45.98451,12.91993,69.27441l.60621,1.56959c.74227,1.92189-.21503,4.08311-2.13814,4.82539-.44099.17008-.89534.25147-1.34241.25147Z"/><path class="cls-4" d="M838.04021,861.50936l-10.64573-17.29582c-1.08-1.75667-.53089-4.05396,1.22578-5.13274,1.75424-1.08243,4.05396-.52967,5.13274,1.22578l5.45468,8.86841c.30007-.49566.62079-1.04842.96338-1.66799l.90142-1.69472c10.44407-20.2637,28.40927-79.60063,33.73882-142.48736.19802-2.2985.37053-4.60428.52967-6.89913l.08747-1.24279,36.81482-42.48939,54.83834.94515c8.78337-10.22782,14.38018-24.90079,16.21339-42.56471,2.26084-21.83572-1.44932-45.82172-10.4465-67.5396-.78844-1.90489.11541-4.08797,2.01908-4.87641s4.08676.1142,4.87641,2.01908c9.46368,22.84404,13.36214,48.11779,10.97617,71.16593-2.07618,19.99886-8.7287,36.62409-19.23715,48.08013l-1.13588,1.23672-54.74601-.94394-32.90179,37.97379c-.13849,1.92311-.28549,3.85108-.45071,5.77054-5.47533,64.59723-23.50614,123.86006-34.56127,145.30824l-.95852,1.80162c-1.95469,3.53521-3.70043,5.95641-5.36356,7.45068l-3.32505,2.98853Z"/><path class="cls-4" d="M840.10546,853.33463l-15.29375-2.7893-53.42425-9.85729-.19438-2.89256c-3.43317-51.19986-2.21589-105.85233,3.61904-162.44127l.10448-1.00711,28.22705-38.5229c1.21971-1.66192,3.55465-2.0203,5.21657-.80423,1.66192,1.21849,2.02273,3.55344.80423,5.21657l-27.03042,36.88893c-5.59439,54.7448-6.83232,107.63938-3.68221,157.27816l53.8859,9.93626-5.27002-158.51852,18.44143-30.35911c1.0715-1.76153,3.36514-2.32158,5.12788-1.25251,1.76153,1.07028,2.32158,3.36635,1.25251,5.12788l-17.28732,28.45908,5.50327,165.53792Z"/><path class="cls-4" d="M761.96629,917.616c-7.232,0-12.44857-2.41755-14.23804-6.72663-1.06056-2.5524-1.68135-7.79569,6.06575-14.24776,11.12681-9.20978,18.52647-18.32966,22.63145-27.88932,3.47083-8.00951,4.59821-16.2219,3.55101-25.85323-.22232-2.04945,1.25737-3.89117,3.30682-4.11348,2.04945-.22961,3.89117,1.25737,4.11348,3.30682,1.19177,10.97131-.11663,20.38154-4.11713,29.61562-4.57877,10.66274-12.66603,20.69983-24.71734,30.67618-3.39915,2.8306-4.22282,4.96388-3.94097,5.64176.35595.85647,3.20356,2.51231,9.40051,2.04824l28.76036-12.60286q30.04325-13.16412,30.82561-13.16412h2.42363l2.98246,6.6999,11.76461-5.41216c-.10205-9.56087-.56976-19.97821-5.59682-27.87717l-.81395-.81395-.00364-.39118c-.84675-1.17112-1.76882-2.24383-2.80023-3.25823-1.46875-1.44567-1.48819-3.80856-.04252-5.27852,1.4481-1.46997,3.80856-1.48576,5.27852-.04252,1.57809,1.55379,2.95695,3.21085,4.20824,5.05621l.00121.00121c.06317.09233.12513.18587.18709.27942l.62322.98767c6.2662,10.26305,6.35974,22.68854,6.44357,33.69144l.01822,2.41148-23.01412,10.58378-3.56073-7.99857c-12.50324,5.47897-55.25625,24.21318-55.25625,24.21318l-.55154.24176-.60014.05588c-1.15168.10691-2.26448.15915-3.33233.15915Z"/><path class="cls-4" d="M782.59445,874.16931c-1.37521,0-2.69697-.76293-3.34813-2.07982-.91357-1.84779-.1555-4.08554,1.69229-4.99911,0,0,7.68393-3.79762,19.87616-9.72609,11.77919-5.71466,22.35689-12.87012,22.46258-12.9418,1.70443-1.15897,4.02723-.71433,5.18377.9901,1.15775,1.70565.71555,4.02601-.9901,5.18377-.44828.30493-11.11466,7.52357-23.39559,13.48241-12.16308,5.91268-19.83,9.70301-19.83,9.70301-.53089.26241-1.09579.38754-1.65098.38754Z"/><path class="cls-4" d="M985.04681,614.9312c-.22596,0-.45314-.02065-.68275-.06317l-71.45628-13.1872c-2.02637-.37417-3.36635-2.32036-2.99218-4.34795s2.32644-3.36878,4.34795-2.99218l71.45628,13.1872c2.02637.37417,3.36635,2.32036,2.99218,4.34795-.33165,1.79676-1.90124,3.05535-3.6652,3.05535Z"/><path class="cls-4" d="M827.2572,649.48033c-4.11105,0-8.15286-.65359-11.57995-2.00329-5.07078-1.996-8.42499-5.29918-9.70179-9.5548-.66452-2.27906-.72041-4.70997-.17494-7.25387,4.27263-19.95999,6.66953-21.47126,7.69365-22.11756,1.74088-1.09701,4.04788-.57705,5.14732,1.16747.92207,1.46389.70218,3.32383-.42398,4.53261-.34745.59163-2.15514,4.13778-5.11816,17.981-.28792,1.34119-.27699,2.50988.0328,3.57409.74349,2.47708,3.28253,3.93976,5.27974,4.72577,6.30993,2.48558,16.11013,1.7749,21.84665-1.58052,2.14178-1.25008,3.49634-2.69575,4.02723-4.29693,3.25701-9.87552,2.45521-21.54294,1.95955-26.10106-.08261-.72284-.15915-1.3011-.21138-1.69472l-.03766-.25876c-.4337-1.98507.80423-3.94826,2.78079-4.41963,1.98385-.47136,3.97135.73012,4.48158,2.69697,0,0,.04373.17251.10934.54061l.06439.45557c.0571.42641.13971,1.05328.23082,1.85508.68396,6.27956,1.29139,18.40741-2.29121,29.26939-1.10673,3.33598-3.64698,6.23826-7.34741,8.39826-4.58363,2.68117-10.74778,4.08433-16.76736,4.08433ZM817.47887,614.86195c-.00121.00121-.00243.00243-.00486.00364.00243-.00121.00364-.00243.00486-.00364ZM817.48373,614.85952c-.00121,0-.00243.00121-.00364.00243.00121-.00121.00243-.00243.00364-.00243ZM817.48738,614.85709h0Z"/><path class="cls-4" d="M954.28195,424.09888c-.18466,0-.37296-.01336-.56126-.0413-2.11141-.31829-4.15843-.71069-6.08518-1.16504-1.4238-.3353-2.69575-.68153-3.88509-1.0557-4.88248-1.50641-8.98017-3.56437-12.15701-6.10705-4.89585-3.89602-7.76168-9.09072-8.28042-15.01676-.79208-9.06278,3.92397-17.92633,8.20267-22.76265,1.36671-1.5465,3.72595-1.68864,5.26759-.32315,1.54407,1.36549,1.68864,3.72473.32315,5.26759-3.55951,4.0248-6.90642,10.89356-6.35731,17.16948.34016,3.88995,2.19037,7.19799,5.50084,9.83178,2.44914,1.96198,5.7183,3.57895,9.72366,4.81567,1.03262.32558,2.12963.622,3.37485.916,1.72995.40819,3.5753.7605,5.48505,1.04842,2.0373.30736,3.44046,2.2086,3.13431,4.24712-.27942,1.849-1.87087,3.17562-3.68586,3.17562Z"/><path class="cls-4" d="M917.07351,363.96258c-8.45414,0-15.7967-4.72091-18.10734-12.38175-3.00311-10.03223-18.15229-19.56395-23.73696-22.38969-1.83807-.93058-2.57548-3.17562-1.64612-5.01369.93058-1.83807,3.17197-2.5767,5.01126-1.64977.93665.47258,22.98254,11.74517,27.52,26.90529,1.74088,5.7754,8.49059,8.51367,15.69344,6.35245,1.97535-.59042,4.05517.52967,4.6468,2.50381.59163,1.97535-.52967,4.05517-2.50381,4.6468-2.32158.69489-4.63951,1.02655-6.87727,1.02655Z"/><path class="cls-4" d="M882.07611,367.49658c-3.78061,0-6.8554-3.07965-6.8554-6.86633s3.07479-6.86755,6.8554-6.86755c3.78669,0,6.86633,3.08086,6.86633,6.86755s-3.07965,6.86633-6.86633,6.86633ZM882.07611,360.03254c-.34016,0-.59771.25755-.59771.59771,0,.32315.27334.59649.59771.59649.33044,0,.60864-.27334.60864-.59649,0-.3353-.26727-.59771-.60864-.59771Z"/><path class="cls-4" d="M854.26697,648.5704c-3.7223,0-7.48834-1.00711-11.28839-3.02619-1.81985-.96702-2.5111-3.22664-1.54407-5.0477.96702-1.81742,3.22543-2.50988,5.0477-1.54407,7.61104,4.04545,14.65352,2.28756,22.16737-5.52392,1.42988-1.48698,3.79276-1.5295,5.27731-.10205,1.48455,1.42866,1.53071,3.79155.10205,5.27731-6.38647,6.63916-12.9989,9.96663-19.76197,9.96663Z"/><path class="cls-4" d="M922.54277,388.06035c-2.0616,0-3.73202-1.67042-3.73202-3.73202s1.67042-3.73202,3.73202-3.73202c3.55587,0,6.94165-1.13467,9.28874-3.11488,2.00329-1.67771,3.08815-3.83285,3.06507-6.07668-.02551-3.09665-1.65706-6.27349-4.0576-7.91232-1.94862-1.33148-4.17301-1.53679-6.60757-.61107-1.78826.73012-3.86079-.03402-4.74035-1.78947-.92086-1.84414-.17372-4.08554,1.6692-5.00761.10934-.05345.23447-.10812.35717-.1555.01458-.00607.03037-.01215.04495-.01822,4.72212-1.79798,9.51106-1.29625,13.48605,1.41773,4.39533,3.00068,7.26602,8.49909,7.31218,14.00601.04616,4.51438-1.9875,8.72991-5.72802,11.8618-3.71623,3.13431-8.72384,4.86426-14.08983,4.86426Z"/><path class="cls-4" d="M869.7065,394.77847c-1.94498,0-3.58502-1.50763-3.71987-3.47812-.13971-2.05674,1.41287-3.8365,3.46961-3.97742,6.3974-.43613,10.72348-2.77107,13.22607-7.13846,1.02412-1.78947,3.30682-2.4054,5.09265-1.3825,1.78826,1.02412,2.40783,3.30439,1.3825,5.09265-3.78426,6.60514-10.2424,10.26427-19.19342,10.87534-.08625.00607-.17251.0085-.25755.0085Z"/><path class="cls-4" d="M1029.1556,666.36553c-.03159,0-.06317,0-.09476-.00121l-116.43854-2.912c-2.06039-.05102-3.68829-1.76396-3.63726-3.82435s1.75667-3.7138,3.82435-3.63726l116.43854,2.912c2.06039.05102,3.68829,1.76396,3.63726,3.82435-.05102,2.0288-1.71172,3.63848-3.72959,3.63848Z"/><path class="cls-4" d="M712.39068,815.74473c-1.87451,0-3.48905-1.40801-3.70408-3.31533-2.0373-18.11828,2.88162-37.63242,8.57684-60.22863,6.05724-24.02974,12.92358-51.26547,11.66621-81.05238l-.00364-.15793c0-11.84236,9.63498-21.47734,21.47734-21.47734h49.61448c2.0616,0,3.73202,1.67042,3.73202,3.73202s-1.67042,3.73202-3.73202,3.73202h-49.61448c-7.70215,0-13.97321,6.24555-14.0133,13.93919,1.28653,30.83897-5.71223,58.60802-11.88852,83.10912-5.51785,21.8916-10.28371,40.7971-8.39704,57.57054.22961,2.04824-1.24401,3.89481-3.29224,4.12563-.14092.01579-.28185.02308-.42155.02308Z"/><circle class="cls-2" cx="799.26416" cy="822.77128" r="10.76859"/><circle class="cls-2" cx="852.52464" cy="755.604" r="10.76859"/><circle class="cls-2" cx="814.80673" cy="718.07747" r="10.76859"/><circle class="cls-2" cx="853.44524" cy="690.13252" r="10.76859"/><circle class="cls-2" cx="898.9895" cy="630.45228" r="10.76859"/><circle class="cls-2" cx="952.84606" cy="637.38175" r="10.76859"/><circle class="cls-2" cx="815.43491" cy="666.8435" r="10.76859"/><circle class="cls-2" cx="794.5471" cy="765.55003" r="10.76859"/><circle class="cls-2" cx="830.24627" cy="794.97257" r="10.76859"/><path class="cls-3" d="M674.8348,817.44431c-2.0616,0-3.73202-1.67042-3.73202-3.73202v-221.08452c0-2.0616,1.67042-3.73202,3.73202-3.73202s3.73202,1.67042,3.73202,3.73202v221.08452c0,2.0616-1.67042,3.73202-3.73202,3.73202Z"/><path class="cls-3" d="M674.8348,573.16951c-2.0616,0-3.73202-1.67042-3.73202-3.73202v-44.83526c0-2.0616,1.67042-3.73202,3.73202-3.73202s3.73202,1.67042,3.73202,3.73202v44.83526c0,2.0616-1.67042,3.73202-3.73202,3.73202Z"/><path class="cls-3" d="M388.86752,179.18691c-1.4645,0-2.85368-.86801-3.44896-2.30518-.78905-1.90428.10326-4.11773,2.00754-4.90617,1.90428-.78905,4.07522.08625,4.86305,1.98992l.0249.06014c.78905,1.90428-.11541,4.08736-2.01969,4.8758-.46711.19377-.95062.28549-1.42684.28549Z"/><path class="cls-3" d="M674.78642,514.79618c-1.4645,0-2.85368-.86801-3.44896-2.30518-.78905-1.90428.10326-4.11773,2.00754-4.90617,1.90428-.78905,4.07522.08625,4.86305,1.98992l.0249.06014c.78905,1.90428-.11541,4.08736-2.01969,4.8758-.46711.19377-.95062.28549-1.42684.28549Z"/><path class="cls-3" d="M443.19262,256.84316c-2.06099,0-3.73202-1.67042-3.73202-3.73202,0-13.33055-10.84558-24.17552-24.17613-24.17552-2.06099,0-3.73202-1.67042-3.73202-3.73202s1.67103-3.73202,3.73202-3.73202c13.33055,0,24.17613-10.84497,24.17613-24.17552,0-2.0616,1.67103-3.73202,3.73202-3.73202s3.73202,1.67042,3.73202,3.73202c0,13.33055,10.84497,24.17552,24.17552,24.17552,2.06099,0,3.73202,1.67042,3.73202,3.73202s-1.67103,3.73202-3.73202,3.73202c-13.33055,0-24.17552,10.84497-24.17552,24.17552,0,2.0616-1.67103,3.73202-3.73202,3.73202ZM430.18279,225.2036c5.5136,2.95452,10.05471,7.49684,13.00983,13.00983,2.95512-5.51299,7.49623-10.05532,13.00983-13.00983-5.5136-2.95452-10.05471-7.49684-13.00983-13.00983-2.95512,5.51299-7.49623,10.05532-13.00983,13.00983Z"/><path class="cls-3" d="M644.06022,168.96939c-2.0616,0-3.73202-1.67042-3.73202-3.73202,0-10.05532-8.1808-18.23612-18.23612-18.23612-2.0616,0-3.73202-1.67042-3.73202-3.73202s1.67042-3.73202,3.73202-3.73202c10.05532,0,18.23612-8.1808,18.23612-18.23733,0-2.0616,1.67042-3.73202,3.73202-3.73202s3.73202,1.67042,3.73202,3.73202c0,10.05653,8.1808,18.23733,18.23612,18.23733,2.0616,0,3.73202,1.67042,3.73202,3.73202s-1.67042,3.73202-3.73202,3.73202c-10.05532,0-18.23612,8.1808-18.23612,18.23612,0,2.0616-1.67042,3.73202-3.73202,3.73202ZM635.41777,143.26924c3.5255,2.14664,6.4958,5.11695,8.64244,8.64123,2.14664-3.52428,5.11695-6.49459,8.64244-8.64123-3.5255-2.14664-6.4958-5.11695-8.64244-8.64244-2.14664,3.5255-5.11695,6.4958-8.64244,8.64244Z"/><path class="cls-3" d="M709.53335,524.91323c-2.0616,0-3.73202-1.67042-3.73202-3.73202,0-14.7252-11.98085-26.70605-26.70605-26.70605-2.0616,0-3.73202-1.67042-3.73202-3.73202s1.67042-3.73202,3.73202-3.73202c14.7252,0,26.70605-11.98085,26.70605-26.70727,0-2.0616,1.67042-3.73202,3.73202-3.73202s3.73202,1.67042,3.73202,3.73202c0,14.72641,11.98085,26.70727,26.70727,26.70727,2.0616,0,3.73202,1.67042,3.73202,3.73202s-1.67042,3.73202-3.73202,3.73202c-14.72641,0-26.70727,11.98085-26.70727,26.70605,0,2.0616-1.67042,3.73202-3.73202,3.73202ZM694.61499,490.74313c6.40226,3.27767,11.6407,8.5161,14.91836,14.91836,3.27767-6.40226,8.51732-11.6407,14.91958-14.91836-6.40226-3.27767-11.64191-8.51732-14.91958-14.91958-3.27767,6.40226-8.5161,11.64191-14.91836,14.91958Z"/><path class="cls-4" d="M211.18303,369.34907c0-4.23178-3.4419-7.67436-7.67368-7.67436s-7.67489,3.44258-7.67489,7.67436,3.44319,7.67497,7.67489,7.67497,7.67368-3.44319,7.67368-7.67497Z"/><path class="cls-4" d="M242.12678,377.14735c3.96717,0,7.19396-3.22786,7.19396-7.19495s-3.22679-7.19465-7.19396-7.19465-7.19503,3.2274-7.19503,7.19465,3.22786,7.19495,7.19503,7.19495Z"/><path class="cls-4" d="M217.73889,391.62715c.13546,0,.27273-.00729.41062-.02187,15.36968-1.68378,17.66453-7.01333,17.66453-10.04074,0-5.6041-7.10627-15.19656-9.28389-18.00287-1.26344-1.63033-3.60811-1.92311-5.2354-.66088-1.62851,1.26223-1.92432,3.60689-.66209,5.236,3.83042,4.9408,7.22289,10.72591,7.66813,12.98918-1.37521,1.12617-6.42777,2.55726-10.96645,3.05899-2.04763.22718-3.5255,2.07132-3.29953,4.11834.21017,1.90974,1.82592,3.32383,3.70408,3.32383Z"/><path class="cls-4" d="M146.13987,439.24563c1.8569-.89291,2.63865-3.12338,1.74513-4.98089-.89291-1.85751-3.12459-2.63744-4.98149-1.74452-10.5613,5.0805-13.67375,12.58463-14.42452,17.98464-1.4068,10.11727,4.08979,21.76769,14.70273,31.16577l.29885.26484c9.03211,7.99614,35.62495,31.54966,39.44262,43.3574-3.0757,1.63185-5.50889,4.53078-6.8166,8.26523-1.4803,4.22768-1.47422,9.16605.0164,13.90639,1.49062,4.73913,4.31333,8.79309,7.94694,11.4123,2.7322,1.96927,5.78876,2.99218,8.7694,2.99218,1.28045,0,2.54754-.1883,3.76786-.57219,4.06185-1.27802,7.30368-4.61643,8.89513-9.16119,1.4803-4.22768,1.47422-9.16605-.0164-13.90639-1.49062-4.73913-4.31333-8.79309-7.94694-11.4123-2.26797-1.63458-4.75948-2.59492-7.24567-2.88162-3.45063-12.27606-22.95262-30.84323-41.86465-47.58811l-.29885-.26484c-8.60661-7.62076-13.30322-17.02856-12.25784-24.54969.72648-5.22386,4.18091-9.35799,10.26791-12.287ZM198.36568,540.46938c.99618,3.16711,1.03019,6.5201.09172,9.19885-.47318,1.35213-1.63397,3.73566-4.08979,4.50831-2.45643.77022-4.77193-.51753-5.93333-1.35577-2.30275-1.65949-4.19488-4.42813-5.19106-7.59646-.99618-3.16711-1.03019-6.52132-.09172-9.20006.47318-1.35213,1.63397-3.73566,4.08919-4.50709.52967-.16765,1.05206-.23811,1.55865-.23811,1.84232,0,3.46415.93543,4.37528,1.59267,2.30275,1.65949,4.19488,4.42934,5.19106,7.59767Z"/><path class="cls-4" d="M274.54347,549.39975l-2.32705.29399c-2.0452.25876-3.4933,2.12599-3.23515,4.17058.25937,2.04581,2.13206,3.48541,4.17058,3.23515l2.31672-.29278c2.91382-.3596,5.31315-1.98385,6.75517-4.57148,2.88405-5.17648,1.36671-12.53482-.75989-17.15247l-13.41863-31.85823c-1.80307-3.91789-4.89258-6.40287-8.40312-6.92951-.18595-12.72981,3.68851-18.89943,7.45189-24.85462,1.05753-1.67406,2.05613-3.25458,2.96423-4.96631,4.99121-9.41387,6.37675-17.34563,4.11834-23.57781-2.72977-7.53086-9.74371-10.39669-13.51217-11.9359-.5321-.21746-1.25373-.51267-1.49913-.64752-1.64855-1.1699-3.93672-.81031-5.14914.81881-1.23004,1.65463-.88684,3.992.76718,5.22264.7933.59042,1.74331.97795,3.05839,1.51492,3.07296,1.25616,7.71673,3.15254,9.3179,7.57095,1.50945,4.16451.26605,10.06503-3.69557,17.53758-.77507,1.46146-1.70018,2.92536-2.67935,4.47429-4.08554,6.46422-9.1703,14.50896-8.57745,30.5219.00326.08777.02559.16947.03478.25512-2.44003,1.84202-4.21333,4.8184-4.88081,8.49666l-4.96752,33.20429c-1.52828,7.78962-.27881,14.53568,3.43256,18.51675,1.92068,2.0616,4.38196,3.19141,6.88273,3.19141.34623,0,.69307-.02187,1.0393-.0656l5.59985-1.6364c1.97292-.59528,3.08997-2.67874,2.49409-4.65166s-2.67935-3.08572-4.65166-2.49409l-4.56723,1.37886c-.40151-.03645-.88684-.32801-1.33694-.81152-1.57445-1.68864-2.80934-5.74503-1.5544-12.06225l4.99182-33.34885c.49748-2.73584,1.98385-4.12077,3.23575-4.2787,1.22821-.17129,2.46189.84554,3.2558,2.56455l13.41863,31.85823c1.96077,4.26169,2.08347,8.69104,1.06968,10.51088-.32801.58799-.66999.73741-1.16018.79816Z"/><path class="cls-4" d="M344.66402,872.88521c-.20235-.09506-.41009-.16158-.61866-.21807-1.70489-2.21346-3.89405-4.81567-6.61152-8.01254-9.72769-11.44237-22.9899-27.0535-22.73068-39.90206l6.31077-1.57779.44646-2.34345c1.96806-10.31894,4.00779-20.33416,5.9801-30.02016,8.606-42.25614,16.03785-78.74902,13.28014-117.21483l-.11723-1.63883-1.28896-1.02047c-3.16651-2.50624-5.99893-4.96752-8.73903-7.34741-9.33552-8.11034-18.15351-15.77119-38.10499-23.94227-1.90853-.77993-4.08676.13242-4.86851,2.03973-.78115,1.90731.13181,4.08676,2.03913,4.8679,18.81378,7.70458,26.79656,14.64016,36.03975,22.66911,2.4297,2.11141,4.93168,4.28478,7.70519,6.52861,2.36167,36.86342-4.88613,72.45488-13.25888,113.56906-1.82774,8.9741-3.71319,18.23126-5.54944,27.76783l-21.60004,5.40001-19.72552-5.69097c11.19522-49.6075,17.16378-91.92529,18.17173-128.91809l.04677-1.71901-1.27681-1.15289c-14.92656-13.47694-55.6841-35.7251-77.04087-40.89399,2.18043-4.5973,3.41259-8.07268,3.50598-10.50633.07957-2.05917-1.52585-3.79398-3.58563-3.87294-2.0616-.06074-3.79276,1.52707-3.87234,3.58624-.15064,3.90574-8.2051,18.11463-14.67782,29.53301-1.09337,1.92918-2.19341,3.8693-3.27949,5.79848-5.78694,10.27885-5.91693,25.72324-5.27852,39.50936.00904.15672.78388,14.20889.93141,24.54362-.88145.2211-2.24899.41973-3.94226.58829-18.68333.51904-63.86574-9.44151-69.94151-13.86053l-.35231-.45192c-4.88734-6.25769-8.77061-27.2418-9.85426-34.79939-4.72698-32.94795,7.85704-55.52473,17.46894-62.66198.00319-.00243.00547-.00547.00866-.0079,13.14271,5.15856,27.42152,7.21439,43.03653,7.21439,13.01165,0,26.94963-1.41652,41.91537-3.62511,1.4888-.21989,2.70061-1.31204,3.07175-2.77107l9.73049-38.22709c.07821.03796.15839.07077.23872.10326.09089.23933.20561.47379.34973.69793,1.11402,1.73238,3.42163,2.23775,5.15704,1.12131,8.97167-5.76811,28.21247-10.36875,35.41592-10.18166-2.12052,1.7749-7.08926,5.05499-18.66557,10.31772-1.74695.79451-2.60646,2.78444-1.9881,4.60064.61836,1.81742,2.51778,2.87312,4.38196,2.43092,2.55969-.59771,5.27609-1.27924,8.03441-1.9717,7.28789-1.82956,20.31108-5.10359,24.61104-4.37468-2.31004,2.22196-11.05392,6.40348-28.55627,10.48659-1.89699.44342-3.13431,2.27056-2.84153,4.19609s2.0203,3.30682,3.96041,3.16104c16.86151-1.23064,24.77748.71433,26.50803,2.0531-2.25962,1.96563-14.2508,3.5012-29.69398,1.60117-2.00086-.26484-3.84014,1.14439-4.14446,3.14039-.30553,1.99478,1.03141,3.87173,3.01708,4.23497,9.60461,1.75789,16.0749,6.06575,17.93362,8.37882-5.19166,1.08972-22.70737.31708-46.32163-5.3587-2.00693-.4823-4.01933.75321-4.50102,2.7565-.48169,2.0045.7526,4.01994,2.7565,4.50102,12.32526,2.9618,25.16805,5.05742,35.23612,5.74867,2.45643.16886,4.66685.25512,6.64705.25512,8.46508,0,12.70673-1.57323,13.84383-4.97724.45496-1.36063.6706-3.53521-.88441-6.16779-.88198-1.49305-2.25172-2.96423-3.99443-4.35281.72587-.04738,1.43352-.10326,2.11991-.16886,3.56194-.33894,14.40083-1.37035,15.53733-8.49423.34502-2.16365-.29582-4.26048-1.80527-5.90417-1.87998-2.04824-5.22872-3.34448-9.32458-4.11834,13.44596-5.63812,12.75714-10.30922,12.44493-12.43399-.27152-1.84536-1.24704-3.37607-2.82149-4.42934-3.04381-2.03366-8.08787-1.97535-15.30529-.67789,1.42927-1.44446,2.07375-2.63015,2.42241-3.67371.52482-1.56959.39908-3.19627-.35413-4.57756-.8346-1.53071-2.32826-2.58156-4.44028-3.12095-5.107-1.30657-15.28957.35595-24.91734,3.20052,1.74316-29.90354-.69899-45.99302-3.76042-66.12005-.71129-4.6796-1.44749-9.51835-2.17397-14.75193-1.42441-13.53222-1.0557-14.1032,3.36696-16.08948,9.50013-4.26534,20.60629-10.29829,22.05075-15.68615.15163-.39543.26605-.8668.30227-1.4071.10805-.6712.03683-1.36154-.22482-2.00207-.13697-.48928-.33841-1.01349-.62291-1.57293-.47569-.93483-1.66571-2.84548-3.56726-3.59596-7.67261-9.55814-9.68798-17.57159-7.66525-28.83569.0388-.21624.04852-.43006.04973-.64235,8.88382-8.32172,14.07837-19.59584,15.95888-27.41264,6.4277-1.20544,11.36379-5.46941,14.37844-12.48213,8.0581-18.74757.74227-54.50912-10.60018-67.52016-20.22057-23.19514-43.33614-18.57628-48.94814-16.9994-17.83339-5.11087-39.60047-2.27298-57.12044,7.50292-15.94005,8.89513-26.99762,22.57799-31.12993,38.50954-.34684,1.31204-8.23061,31.80721-.47622,58.81576-.55762.81881-1.12191,1.64005-1.68682,2.4625-8.47905,12.34409-19.03124,27.70709-6.63794,37.96286.69611.57584,1.53922.85647,2.37746.85647,1.07332,0,2.13935-.46043,2.87737-1.35334,1.31386-1.58781,1.09154-3.93976-.49627-5.25423-6.63855-5.49355-1.12981-14.64745,8.03198-27.98529.91539-1.33391,1.82835-2.66295,2.7158-3.98228.63294-.94151.80302-2.11991.46286-3.20113-7.96395-25.32963-.0328-56.10786.05224-56.43101,3.62025-13.9562,13.40344-25.98929,27.54673-33.88217,16.16844-9.02269,36.24688-11.535,52.40257-6.55533.7611.23447,1.59085.21624,2.34284-.04859.92207-.31951,22.78998-7.61833,42.05994,14.4883,4.82463,5.53395,8.85254,16.43085,10.84223,27.93017-.55845-.33302-1.20354-.53651-1.90094-.53651-25.32234,0-39.71042-11.78283-51.48596-24.51689-.8097-.87469-1.9875-1.31204-3.17197-1.17233-1.18387.13728-2.23107.83217-2.81724,1.87087-12.02094,21.27203-30.90032,46.12786-70.51598,49.54524-2.0537.17737-3.5747,1.98628-3.39733,4.03938.16765,1.94498,1.79798,3.4113,3.7138,3.4113.10751,0,.21624-.00486.32497-.01336.47804-.0413.93969-.09901,1.41219-.14593-.83263,4.81703.3804,9.7387,3.47394,13.32341,3.16529,3.66885,7.81938,5.57495,13.29897,5.57495,1.01463-.00061,2.06259-.07957,3.12961-.21123.89952,8.26174,3.66201,15.1138,8.26356,20.52322-.01192.02551-.02954.04616-.041.07198l-12.77468,28.79681c-.15922-.0984-.32588-.19924-.47933-.29642-2.25112-1.42866-4.54901-.03159-6.22793.98646-2.3969,1.45296-4.36435,2.85733-4.15661,5.32833.11723,1.39465,1.04356,2.65323,2.33798,3.18534l45.79499,18.83504c.11784.04859.2375.09111.3596.12634,9.86215,2.92293,11.37404,12.46193,11.45847,13.05235.01397.11541.03341.23204.05771.34623,6.7923,31.32917,10.78392,53.19374,8.59172,89.78229-.16757-.06682-.33477-.13485-.51236-.17737-25.61937-6.09126-46.59862-7.18341-62.25075-7.84429-1.45418-16.55841-2.30032-41.29397-2.68603-55.10682-.05831-2.06039-1.75971-3.73202-3.83528-3.62633-2.05978.05831-3.68343,1.7749-3.62633,3.83528.41487,14.84183,1.35881,42.22334,3.02194,58.86192.18526,1.84779,1.7014,3.27888,3.55769,3.35663l1.14439.04859c14.81328.61593,34.83948,1.44932,59.2525,6.88577l-8.42802,33.11074c-39.44133,5.62476-71.15256,5.27366-96.90314-13.51399-.39103-2.07193-.7482-4.09769-1.10567-6.12406-.50971-3.16104-1.17506-7.26572-2.03442-12.53725-1.68614-11.40987-2.7997-22.22022-3.34714-32.78699-.28063-8.42195-.31001-17.34988-.21192-25.75088.48518-13.57595,1.89441-27.28645,4.24514-41.9752,2.39872-13.79098,10.58074-19.18492,19.47405-23.92162,1.81924-.96824,2.50867-3.22907,1.53982-5.0477-.96824-1.81985-3.22786-2.50745-5.04831-1.53922-7.51628,4.00293-20.09666,10.70162-23.32755,29.28032-.12794.79937-.23447,1.57688-.35701,2.37048-17.80948,2.31216-28.85209,8.52491-34.70903,19.54299-5.06228,9.522-6.46361,22.42857-4.83693,44.54734.18648,2.53661.40515,5.64419.65602,9.20735,2.22318,31.57153,6.84993,97.2682,14.01755,123.33281,3.03287,11.0272,7.89288,17.57402,14.44639,19.45826,1.31508.37782,2.60768.53939,3.85533.53939,4.12556,0,7.74702-1.7585,10.07847-3.24547,1.87778,8.44442,4.69517,18.28562,8.383,23.30386.22551.41821.51122.79876.83954,1.14803-5.12523,2.49743-11.0666,7.94998-10.50549,17.48777.88061,14.96422,36.94003,22.6439,62.79219,24.53269,1.33558,10.61961,5.30867,42.02106,6.99465,53.19647l-72.19711,30.66343c-1.50763.64144-2.4212,2.18916-2.25355,3.81827l1.50634,14.60614c-1.27134,2.09015-1.99775,4.48735-1.99775,7.03641,0,8.0824,7.27574,14.65838,16.21825,14.65838,8.94312,0,16.21886-6.57598,16.21886-14.65838,0-2.92111-.96095-5.63873-2.59697-7.9269l37.92482-12.70247,4.91468.77022-1.5194,25.17534c-.58768,1.51492-.92367,3.13614-.92367,4.83024,0,8.0824,7.27574,14.65717,16.21886,14.65717s16.21886-6.57477,16.21886-14.65717c0-3.70013-1.53686-7.07438-4.04841-9.65684l9.29778-13.46176h7.48872c-3.17706,5.75839-5.71496,14.36378-2.31771,25.09152,1.53071,4.8351,1.94072,9.65684,2.24079,13.17748.27395,3.22178.45557,5.3502,1.35517,6.92465.64812,1.13346,2.11202,3.70043,13.33966,3.70043.70158-.00121,1.44385-.01093,2.22439-.03159,2.06039-.05588,3.68525-1.77125,3.62997-3.83164s-1.73784-3.71744-3.83164-3.62997c-3.3949.09233-7.21439-.15672-8.95709-.54425-.12209-.85404-.23082-2.13085-.32315-3.22057-.32983-3.87051-.78115-9.1709-2.56273-14.79688-2.51884-7.95423-.79588-14.38352,1.48766-18.77065l.74949,1.04477c.41912.58313,10.50177,14.39598,31.41542,23.59725,8.12796,3.57652,20.0183,6.48852,29.31191,6.48852,5.23175-.00121,9.64166-.92329,12.09262-3.17076,1.40141-1.2847,2.11733-2.87737,2.28696-4.761,3.77249,4.46822,7.01956,9.90467,6.07061,14.41177-.38511,1.82956-1.6443,3.35177-3.84804,4.65166-6.58145,3.88266-19.95999,4.40626-30.45994,1.1942-15.74081-4.81931-32.17045-13.79827-32.33506-13.88817-1.80587-.99375-4.07522-.33408-5.06714,1.47361-.99253,1.80648-.33348,4.07461,1.47301,5.06714.69672.38268,17.25148,9.43574,33.74429,14.48344,4.97724,1.52464,11.03084,2.43699,17.05103,2.43699,7.1251,0,14.20281-1.27924,19.38719-4.33823,3.99625-2.35802,6.54075-5.65877,7.35835-9.54265.11701-.55579.1905-1.11098.24464-1.66617,7.49882,2.38505,23.02498,6.61911,38.75448,6.61911,1.97413,0,3.95312-.06682,5.91814-.21138,8.56226-.63415,14.93112-5.57616,16.22433-12.59071,2.03487-11.03327-8.52582-20.26006-19.08833-25.21422ZM271.6134,352.56941c1.07734,9.7431.56809,19.35439-2.28407,25.9896-1.55334,3.61296-3.66983,5.99772-6.3813,7.25706.40492-6.56429-.52079-10.87549-1.24735-13.13329,1.29875-3.11913,3.58442-10.32592,1.82881-19.11051,1.7443.10782,3.52451.17828,5.37222.17828,1.07165,0,2.031-.45769,2.7117-1.18114ZM176.91241,423.86745c2.56569,1.87679,5.45939,3.49285,8.70645,4.82356.46286.19073.94212.28063,1.41409.28063,1.46936,0,2.86279-.87348,3.45443-2.31793.78176-1.90731-.1306-4.08676-2.03791-4.8679-13.5553-5.55673-19.38476-16.2547-18.34545-33.66836.1227-2.05796-1.44567-3.82435-3.50302-3.94826-2.04642-.09719-3.82435,1.44567-3.94766,3.50363-.0574.96216-.07547,1.89486-.09339,2.82756-4.60542.72602-8.27579-.2044-10.47095-2.7486-2.11703-2.45278-2.53106-6.20166-1.05927-9.55814,34.18095-6.0943,52.39596-27.70481,64.37484-47.71719,10.04431,10.18925,22.16221,19.22151,40.21921,22.21931,2.97441,9.90953-1.07089,17.73924-1.24439,18.06634l-.97613,1.68014.90567,1.7591c.02369.04981,2.31042,5.05924.69057,15.79776-.00008,0,0,0,0,0-.00213.01382-.00326.02627-.00539.04024-1.65888,10.94216-13.09487,34.92937-36.27057,34.92937-2.06099,0-3.73202,1.67042-3.73202,3.73202s1.67103,3.73202,3.73202,3.73202c7.27407,0,13.57519-1.92675,18.96488-4.99-.52352,11.18179,3.22072,19.52568,9.38335,27.38576-2.31976,3.83528-7.8452,9.33157-31.40843,9.64227-17.83567.20713-38.12215-7.04401-50.79714-13.44839l12.04623-27.15494ZM307.27487,826.60944c.86626,15.10545,14.4167,31.05127,24.47225,42.88027,3.43924,4.04545,7.59889,8.93887,8.93097,11.41109-7.25205,3.67492-21.55266.04616-32.16438-2.64837-1.66495-.42277-3.2807-.83217-4.82417-1.20756-11.99201-2.90623-22.4149-9.69268-23.32528-10.29586-.2006-.3766-.39612-.74501-.59998-1.12738-3.14692-5.90356-6.51274-12.22929-9.07979-18.29564.31685-8.96165.58897-14.29302,4.01728-22.33988l18.13733,5.23236,14.43576-3.60902ZM197.74792,672.31465c1.08243-1.92311,2.17883-3.85715,3.26855-5.77904,3.37523-5.95398,6.27888-11.11345,8.64768-15.55707,18.36618,3.66611,58.97392,25.4988,74.24702,38.45092-1.23247,39.27368-8.08422,84.67628-20.92519,138.65693l-21.56238,3.72595-18.60725-5.23115c-2.67692-36.37505-4.8515-74.59666-1.0715-109.09112.22475-2.04945-1.25433-3.89238-3.30318-4.11713-2.04216-.2211-3.89177,1.25494-4.11591,3.30318-.50773,4.63283-.90658,9.32823-1.21667,14.0707-.4561-1.27529-1.57741-2.26357-3.01283-2.45309l-15.88326-2.09501c-.26977-8.92976-.76581-17.92481-.7936-18.41531-.55276-11.9517-.56126-26.7838,4.32851-35.46877ZM200.13093,817.48956c-.82169-9.93383-3.81516-42.57534-4.6506-51.66667,8.45513-.81091,13.85332-1.92372,16.79948-2.67753.17076,21.03544,1.51484,42.44626,3.04199,63.26879l-15.19087-8.92459ZM281.79126,889.35372c-2.8549,2.1758-19.23351,1.42016-33.24013-4.74399-15.89024-6.99146-25.01437-17.02856-27.59472-20.15315.59102-11.39287,1.97595-20.57713,4.22707-28.04239.13842-.45952.17547-.92359.13918-1.3746l15.70733,4.41659,18.42191-3.18443c1.75599,10.38302,8.07762,22.26608,13.72545,32.86079,3.73384,7.00483,9.35131,17.54244,8.6139,20.22118ZM356.41223,896.74609c-.66878,3.62754-4.28417,6.11799-9.43574,6.49945-19.42257,1.43929-41.03506-5.73166-45.33206-7.24354-2.30123-6.24403-7.22137-11.83203-11.02704-15.47962,3.43195,1.43686,7.26754,2.79567,11.31367,3.77636,1.51796.36931,3.10759.77264,4.74581,1.18812,8.12127,2.06282,17.44282,4.42934,25.65642,4.42934,5.37025,0,10.26791-1.01197,14.0461-3.78304.89944-.65906,1.54924-1.55744,1.89129-2.59249,6.77013,4.79805,8.76097,9.84727,8.14155,13.20542Z"/><path class="cls-4" d="M230.45655,402.39315c1.88302-.83703,2.73098-3.0432,1.89334-4.92622-.83825-1.88423-3.04138-2.72977-4.92683-1.89395-6.55169,2.91321-13.43867,1.98992-21.05518-2.82696-1.7421-1.10187-4.04788-.5807-5.14854,1.16018-1.10126,1.7421-.58191,4.04788,1.16018,5.14975,5.94912,3.76118,11.78587,5.64541,17.45011,5.64541,3.61782,0,7.16519-.769,10.6269-2.30822Z"/><path class="cls-4" d="M427.35098,548.57365c1.06482-2.78201.53757-4.8837-.09172-6.15686-.89109-1.80041-2.42606-3.05413-4.43967-3.6239-1.94619-.55033-4.76586-.69246-9.96967,1.16504,2.73159-3.70529,4.70451-7.39236,4.82113-10.41005.09901-2.5439-.97067-4.17666-1.88545-5.09751-4.33216-4.35888-10.97799-1.06056-18.92858,5.18741.42216-1.71294.35777-2.92536.12574-3.9106-.40151-1.70201-1.47422-3.04927-3.02073-3.79519-8.49294-4.10862-29.8264,17.02187-36.53973,26.8895l-.36559-.93786-2.98975.49809c-16.15569,2.69211-34.83583,5.38179-49.04897,7.07407.90628-15.14918,3.54676-63.74441,1.05996-78.04077-3.25215-18.70019-23.81714-23.08701-24.69062-23.26438-2.02273-.41062-3.99018.89413-4.4008,2.91321-.41062,2.0203.89413,3.98957,2.91382,4.40019.164.03402,16.4351,3.49391,18.8241,17.22901,2.74495,15.78212-1.38918,80.09265-1.43109,80.74016l-.28853,4.44392,4.4257-.49323c13.90335-1.54893,33.55173-4.31272,50.87185-7.14575l11.76992,30.19753c.07988.30553.18853.5971.33697.86437l.99405,2.55058c-23.1186,9.83178-29.35807,12.47651-57.43933,13.50063-2.05978.07532-3.66885,1.80527-3.59353,3.86565.0735,2.01301,1.72873,3.59596,3.72716,3.59596.04616,0,.09233-.00121.13849-.00243,29.48563-1.07514,36.59615-4.10012,60.15392-14.1202l6.59785-2.80144-2.08658-5.35354c24.51735-3.82374,48.39029-14.04397,52.85153-20.73051,1.21971-1.82835,1.13831-3.41008.85525-4.41598-.34623-1.23064-1.22578-2.94358-3.44896-4.11348-1.11463-.58677-2.44671-.94637-3.92032-1.1286,3.90453-3.1331,6.921-6.46179,8.11216-9.57302ZM397.91455,561.90056c-1.87877.75078-2.81663,2.86097-2.11505,4.75857s2.78687,2.89377,4.70269,2.23897c8.53007-2.90106,14.11838-3.57895,17.01094-3.45017-6.14395,4.26959-24.68158,12.72404-47.39161,15.95554l-9.81045-25.17018c.98752-.23629,1.87816-.85981,2.40563-1.81985,4.75796-8.65216,19.89682-21.75554,26.34828-24.90686-1.02594,2.42241-3.70043,7.21743-10.64148,16.19517-1.17172,1.51613-1.00529,3.67371.38571,4.99182,1.38918,1.31811,3.55344,1.36792,5.00458.11663,1.95469-1.68621,4.00415-3.51092,6.08397-5.36478,5.759-5.13153,16.11256-14.35832,20.19081-15.40187-.96277,3.20477-7.30004,11.57145-18.35396,21.09587-1.47847,1.27438-1.72569,3.47204-.56673,5.04284,1.15836,1.56959,3.33051,1.98264,4.98575.94637,17.19924-10.78544,22.82582-11.36128,24.26785-11.22036-.91053,3.02619-9.9642,10.97617-22.50692,15.99229Z"/><path class="cls-1" d="M550.55185,334.23598c1.04992,1.51997,2.01906,3.3081,2.96734,5.4583.745,1.69174,1.47873,3.61765,2.22018,5.81914,2.73981-1.79678,6.65791-4.19228,11.47362-6.66439,4.5077-2.30961,9.80814-4.68781,15.66451-6.69467-.39544-.10627-.79072-.20946-1.18833-.34107-1.4727-.48627-2.95715-1.16655-4.44885-2.01304-.61185.40903-1.32132.85205-2.14619,1.30186-2.72266,1.47672-6.6023,3.01646-11.26138,3.02388-.27773,0-.55995-.00494-.84633-.01606l-.00772-.00062c-6.31174-.25827-10.79025-3.14066-13.44479-4.62912-.85452-.49121-1.52013-.81498-1.79369-.90271-.095.03028-.24499.08465-.46727.18474-.3664.16065-.8848.42757-1.51843.73836,1.73715,1.11217,3.37452,2.6618,4.79733,4.73539Z"/><path class="cls-1" d="M534.77458,342.19173c1.55998,1.34202,4.21035,2.80391,7.64527,4.0341,1.84235.66669,3.91099,1.27035,6.15496,1.79987-.84062-2.50239-1.63984-4.52902-2.4006-6.14229-1.18416-2.51537-2.25555-4.01186-3.20136-4.9535-.63657-.63085-1.22277-1.04297-1.90058-1.40258-.83629-.44302-1.87061-.79273-3.1924-1.15975-1.41694.7569-2.55136,1.53974-3.34857,2.26327-.82702.74639-1.28209,1.4137-1.48058,1.88637-.13454.32068-.17501.55238-.17702.78779.00433.30585.06843.62467.34153,1.1165.27156.48256.77512,1.10352,1.55936,1.77021Z"/><polygon class="cls-1" points="558.54575 288.62511 558.54544 288.62449 558.5456 288.62511 558.54575 288.62511"/><path class="cls-1" d="M562.70497,350.08879c2.43628.16868,4.95288.26074,7.52988.25889,7.21477.00062,13.97122-.69511,19.7156-1.88761,5.74021-1.18199,10.47915-2.89536,13.54582-4.7255,2.05582-1.20609,3.2976-2.46594,3.75807-3.31304.27295-.49183.3372-.81065.34153-1.1165.00015-.92619-.03784-1.72758-.16281-2.5129-.11091-.68955-.30677-1.39145-.61216-2.17245-.39637.18351-.82486.31264-1.2858.34972-13.16459,1.04421-25.55529,5.87722-34.64144,10.52487-3.17047,1.61821-5.92634,3.20553-8.18869,4.59451Z"/><path class="cls-1" d="M627.73008,737.16366c-6.15403,1.31237-12.71972,1.86351-19.2712,1.86413-7.33896-.00371-14.64733-.69573-21.3315-1.84497l1.75399,19.86157,45.07564-.48256-.08681-21.03059c-1.98956.63826-4.0392,1.18323-6.14013,1.63242Z"/><polygon class="cls-1" points="462.64391 734.23432 492.66921 740.7634 494.8948 728.54122 465.02427 718.48161 462.64391 734.23432"/><path class="cls-3" d="M673.6051,814.85334c-.92156-.73712-1.87278-1.21103-2.95715-1.66517-2.02323-.82919-4.54601-1.51194-7.69501-2.17615-4.51156-.94473-10.30012-1.80914-17.19498-2.60125.93345-.71859,1.68201-1.61327,2.27331-2.5994.91198-1.52986,1.49587-3.27968,1.88992-5.28715.38942-2.00995.57802-4.28867.57895-6.89486-.00865-8.0336-1.79415-19.24988-6.06243-34.37668-.38988-1.37848-1.52538-2.39117-2.88825-2.67478l-.09979-24.18114c1.05378-.55114,2.08471-1.13195,3.0713-1.76836,1.76079-1.13812,2.2659-3.4879,1.12824-5.24823-1.13782-1.76094-3.48744-2.26636-5.24823-1.12824-3.84735,2.49003-8.75683,4.31709-14.25529,5.48673-5.49584,1.17396-11.56537,1.69792-17.68681,1.6973-10.76183.00618-21.69573-1.6281-30.00259-3.93833-2.00979-10.78006-5.35805-24.70756-8.95161-40.13156-3.85754-16.55039-7.99421-34.79436-11.04095-52.48967-3.12737-18.15995-5.18922-35.90963-7.04748-52.48287-1.8598-16.57572-3.512-31.97006-5.85467-45.47309-.24854-1.43162-1.29537-2.59816-2.69146-2.99916l-16.23048-4.66557c-2.01504-.57957-4.11813.58451-4.69724,2.5994-.57926,2.01489.58482,4.11813,2.59986,4.6977l-.00015-.00062,13.92365,4.00259c1.08004,6.53835,2.0257,13.57223,2.92533,21.01515-.05453.14273-.1174.28113-.15524.43313l-17.54192,70.49083-22.73361,90.07806-60.24029-20.28729c1.48599-6.88127,5.08804-23.60589,8.92041-41.72939,2.50687-11.85516,5.11106-24.30347,7.28474-34.98158,2.16689-10.64659,3.90049-19.49641,4.70264-24.36773l20.93127-109.58065c.39297-2.05938-.95771-4.0477-3.01693-4.44066-2.05938-.39297-4.04754.95771-4.44051,3.01708l-.00015-.00062-20.93884,109.62082-.0173.09762c-.75597,4.6112-2.49374,13.50117-4.66001,24.13974-3.25126,15.97144-7.47813,35.96091-10.89096,51.9515-1.70657,7.99591-3.2097,14.99272-4.2862,19.99009-.53817,2.49868-.96975,4.49751-1.26664,5.87166-.29704,1.37415-.45877,2.12055-.45924,2.1224-.41027,1.89193.66391,3.78325,2.49838,4.40174l22.63676,7.62395-2.5078,16.59734-1.56878-.34107c-.5184-.11307-1.06722-.11554-1.58624-.00618-.15478.03645-10.9061,2.28675-23.1757,7.63569-6.13673,2.68034-12.66087,6.13364-18.45344,10.56318-5.78114,4.42954-10.88031,9.86189-13.89229,16.58499-.42556.95214-.4407,2.03466-.04248,2.99854.39822.96388,1.17319,1.71954,2.14665,2.09398l41.88417,16.09625c.6378.24468,1.31854.31264,1.99234.19957l15.40392-2.59445.12744,7.1865c.03182,1.81037,1.33986,3.34703,3.12181,3.66894l29.49733,5.32052c1.63582.29473,3.27026-.50604,4.03935-1.97967,2.80113-5.36933,5.48734-11.10876,7.49265-17.0972,2.00238-5.9872,3.3305-12.23577,3.33235-18.6042.0088-6.94491-1.61991-14.04305-5.60798-20.76305-.01097-.01854-.02672-.03275-.03784-.05128l2.2832-12.53853.2592.08712c1.00157.33736,2.10155.24097,3.02959-.26507.92789-.50604,1.60431-1.3791,1.86289-2.40353l23.73858-94.06088.00309-.01236,12.78181-51.36329c.00989.08959.01977.17671.02981.26692,1.86135,16.59549,3.93787,34.50087,7.11034,52.92527,3.0937,17.96346,7.26389,36.33905,11.129,52.92466,3.8648,16.57634,7.42623,31.39111,9.29021,42.04883.24622,1.4069,1.2515,2.54811,2.61623,2.97136,1.68664.52087,3.47724,1.01208,5.34693,1.46931l2.20828,25.00662c-5.3094,8.27643-9.84212,15.7144-13.1547,22.12052-1.77438,3.43538-3.20414,6.57666-4.22039,9.4578-1.00853,2.88609-1.6352,5.50155-1.6454,8.04534.00046,1.19312.16049,2.38376.54002,3.54227-11.83276-.25024-24.24339-.38432-37.04374-.38432-40.37439,0-76.91935,1.32472-103.47096,3.47678-13.28446,1.07881-24.05045,2.35596-31.67472,3.81537-3.82449.73836-6.84141,1.49773-9.1847,2.4196-1.17875.47515-2.19824.96512-3.18097,1.73746-.48812.39297-.9818.86997-1.41385,1.55457-.42865.67287-.77265,1.61451-.76709,2.62164-.00556,1.00652.33829,1.94816.76709,2.62102.41815.66298.8953,1.13195,1.36767,1.5175.92156.73712,1.87278,1.21103,2.95715,1.66517,2.02338.82919,4.54617,1.51194,7.69501,2.17615,5.4946,1.1511,12.85441,2.18419,21.84094,3.11038,26.93315,2.77055,68.43747,4.53396,115.06444,4.5352,40.37423,0,76.91919-1.32472,103.4708-3.47678,13.2843-1.07881,24.05045-2.35657,31.67472-3.81599,3.82433-.73774,6.84141-1.49773,9.18486-2.4196,1.1786-.47515,2.19809-.96512,3.18097-1.73746.48812-.39297.9818-.86997,1.4137-1.55457.42865-.67287.7725-1.61451.76709-2.62102.00541-1.00714-.33844-1.94878-.76709-2.62164-.4183-.66298-.89545-1.13195-1.36782-1.5175ZM492.66921,740.7634l-30.0253-6.52908,2.38036-15.75271,29.87052,10.05961-2.22558,12.22217ZM588.88138,757.04439l-1.75399-19.86157c6.68417,1.14925,13.99254,1.84127,21.3315,1.84497,6.55148-.00062,13.11717-.55176,19.2712-1.86413,2.10093-.44919,4.15057-.99416,6.14013-1.63242l.08681,21.03059-45.07564.48256Z"/><path class="cls-3" d="M646.68585,581.89366c-1.74658-30.89743-4.80459-59.16519-10.21099-80.81613-.50882-2.03404-2.5702-3.27041-4.60409-2.7619-2.03404.50851-3.27041,2.57036-2.76159,4.6044,5.20822,20.80816,8.27349,48.76018,9.99628,79.40058,1.72835,30.64966,2.13692,64.01674,2.13676,95.84963-.00015,10.20667-.04171,20.25578-.09515,30.00954-.01174,2.09645,1.67861,3.80549,3.77521,3.81723,2.09645.01112,3.80549-1.67876,3.81723-3.77521l-.00015-.00062c.05345-9.75995.09515-19.82388.09515-30.05094-.00015-31.89962-.40749-65.38842-2.14866-96.27658Z"/><path class="cls-3" d="M561.6827,208.54919c.00402.00062.00741.00247.01143.00247.00402.00124.00741.00062.01143.00124l-.02286-.00371Z"/><path class="cls-3" d="M558.47423,208.92054c-1.12947.40718-2.04038.92063-2.99623,1.44274-1.41586.78532-2.87883,1.61574-4.44252,2.23547-1.56446.62096-3.18792,1.02938-4.95195,1.03061-.85854-.00062-1.76249-.09762-2.73873-.33056-3.0869-.74701-4.68426-1.75415-5.47777-2.40106-.39714-.32624-.5964-.56844-.67503-.67225l-.03676-.05128-.00108-.00185-.01189.00741c-.93932-1.75415-3.08072-2.50733-4.9138-1.66703-1.90599.87367-2.7429,3.12706-1.86922,5.03321.2039.45352.94226,1.7906,2.69362,3.22283,1.74781,1.43656,4.47434,2.94232,8.51786,3.91238l.00541.00124c1.55395.37196,3.0662.5394,4.50739.53879,2.25447.00062,4.31415-.40533,6.12623-.98242,2.71772-.8675,4.91334-2.10881,6.54792-3.01276.81111-.45228,1.48599-.8193,1.91711-1.01146.07059-.03213.12126-.0519.17625-.07414.1367.05005.28268.12234.50063.25147.57524.32809,1.55349,1.19312,3.09231,2.18542,1.5399.98675,3.65272,1.96608,6.39593,2.47026,1.91309.35775,3.79004.51901,5.61154.5184,4.38243-.00062,8.41931-.92434,11.94784-2.21014,1.39053-.50727,2.67957-1.07881,3.9096-1.66888.76246,4.42892,2.23516,10.67131,5.40547,16.3125,1.68216,2.97198,3.86511,5.79752,6.79616,7.95513,2.91652,2.15947,6.63026,3.56514,10.84277,3.61271,2.09614.03028,3.82047-1.64416,3.85121-3.73999.03058-2.09645-1.64386-3.82094-3.73999-3.85121l-.00015-.00062c-1.77531-.02904-3.24168-.39668-4.56872-1.01331-1.15851-.54188-2.21462-1.28827-3.19874-2.22867-1.72001-1.63984-3.19565-3.8957-4.36992-6.40798-1.76975-3.76224-2.84809-8.0509-3.44141-11.35344-.29905-1.65158-.48179-3.05848-.58853-4.03719-.05329-.48936-.08774-.87244-.10828-1.12577-.01035-.12666-.01715-.2212-.02116-.2799l-.00417-.06241-.00062-.0105h-.00046c-.07847-1.34079-.8556-2.53699-2.04918-3.1524-1.19451-.61602-2.62102-.55547-3.75915.15941-2.09768,1.31793-4.67793,2.71123-7.55506,3.75915-2.87914,1.05039-6.04127,1.75229-9.34751,1.75167-1.37554-.00062-2.78013-.1211-4.21329-.38926-1.20393-.228-2.04995-.5357-2.75217-.87367-1.051-.50789-1.8096-1.12021-2.92347-1.9463-.55562-.40718-1.20486-.86502-2.01844-1.28085-.80602-.41459-1.78257-.76616-2.84995-.93237-.30384-.04819-.59532-.06858-.86935-.06858-.95446.00556-1.7007.21255-2.35055.43746Z"/><path class="cls-3" d="M536.34073,295.88699c2.28274,1.12268,5.72661,2.21075,10.79365,2.64636l.0085.00062c.91677.07662,1.8028.11492,2.65949.11492,4.43727.00371,7.8572-1.0127,10.18164-2.09645,2.32954-1.08313,3.57162-2.21384,3.81259-2.44431,1.51395-1.45015,1.566-3.85307.11601-5.36748-1.43316-1.49587-3.79406-1.55828-5.31048-.15941l-.00463-.00556-.02132.01854c-.13995.11678-.91245.73095-2.34653,1.31422-1.43733.58266-3.5344,1.14616-6.42728,1.14863-.62807,0-1.30232-.02842-2.02091-.08897-4.2899-.37011-6.77978-1.24996-8.09138-1.8944-.65726-.32377-1.02351-.58945-1.18524-.71859l-.08419-.07106-.00989.01112c-1.33492-1.49464-3.61271-1.71151-5.19463-.44302-1.63598,1.31113-1.89904,3.70045-.5876,5.33658.33226.42015,1.43007,1.58052,3.71219,2.69826ZM558.54575,288.62511h-.00015l-.00015-.00062.00031.00062Z"/><path class="cls-3" d="M565.21432,252.18473c0,3.85183,3.12768,6.98445,6.9721,6.98445,3.85183,0,6.98445-3.13262,6.98445-6.98445s-3.13262-6.98569-6.98445-6.98569c-3.84441,0-6.9721,3.13386-6.9721,6.98569Z"/><path class="cls-3" d="M524.2962,252.18473c0,3.85183,3.12768,6.98445,6.9721,6.98445,3.85183,0,6.98445-3.13262,6.98445-6.98445s-3.13262-6.98569-6.98445-6.98569c-3.84441,0-6.9721,3.13386-6.9721,6.98569Z"/><path class="cls-3" d="M680.62554,395.78617c-.53168-6.88868-1.16516-12.2265-1.63119-15.09282-.71241-4.35725-2.02879-9.0185-3.84009-13.61857-2.72544-6.89671-6.53788-13.65194-11.30386-18.89707-2.38824-2.61917-5.02579-4.867-7.95761-6.50436-1.28626-.71859-2.64049-1.30804-4.04306-1.75291-.22877-.59007-.59934-1.12391-1.1026-1.54345-3.1371-2.61237-6.81655-4.62355-10.7263-6.25783-5.86625-2.44431-12.27995-4.04337-18.30129-5.25317-4.00676-.802-7.83573-1.42791-11.18121-1.98029,2.65593-1.36736,5.04371-2.87497,7.16132-4.5803,4.18131-3.3532,7.27825-7.52571,9.18934-12.47921,1.92205-4.95597,2.71509-10.61261,2.71679-17.17938-.00185-6.3882-.75844-13.68654-2.06942-22.1786,1.24285-.26013,2.53298-.59934,3.83453-1.07696l-.00602.00247c2.47227-.90889,5.01405-2.29293,7.03759-4.57474,1.00544-1.13751,1.85857-2.50054,2.43829-4.05078.5825-1.55025.88773-3.27412.88619-5.10735,0-1.05039-.09793-2.13785-.29272-3.26052l-.00077-.00433c-.30013-1.72634-.8746-3.3081-1.66826-4.68843-1.18894-2.07729-2.84979-3.66338-4.62278-4.80521-1.77824-1.14739-3.67079-1.8839-5.50727-2.38191-.16111-.04263-.32408-.07229-.48596-.10936.07059-1.01146.1194-2.01921.11925-3.01461.00371-7.63446-2.05629-14.76164-5.60088-21.04357-5.32392-9.43371-13.90774-16.99773-24.01246-22.23668-10.11368-5.23525-21.78842-8.16583-33.51536-8.16954-7.90462,0-15.8389,1.33893-23.29449,4.25716-7.45327,2.91513-14.42428,7.42314-20.31679,13.69086-1.43671,1.52677-1.36334,3.92968.16405,5.36624,1.52723,1.43656,3.92984,1.36303,5.36655-.16374,5.09376-5.41382,11.06891-9.28233,17.55381-11.82365,6.48228-2.53823,13.47785-3.73505,20.52687-3.73505,13.93909-.01298,28.05567,4.72427,38.46377,12.62688,5.20915,3.94513,9.49009,8.66013,12.44955,13.91453,2.95946,5.26058,4.61938,11.04389,4.62309,17.31655-.00015,1.85548-.14659,3.75606-.45352,5.70236l-.00602.03769-.01437.10319c-.0068.04758-.00062.0933-.00556.14088-.00247.02966-.01236.05684-.01406.08712-.00263.04387.00649.08465.00541.1279-.09021,1.93395,1.28611,3.65782,3.24183,3.93401.33195.04696.65572.0346.97362-.00247.9747.07847,1.8286.20204,2.24906.32253,1.6922.4529,3.19024,1.1616,4.23074,2.0742.52566.45846.95122.96265,1.29661,1.5626.34338.60119.61339,1.30495.77373,2.21384.12697.73156.18104,1.38342.18104,1.96052-.00154,1.01022-.16003,1.78936-.40316,2.44184-.36933.97068-.93531,1.71522-1.77098,2.41404-.83104.69017-1.94322,1.28765-3.20322,1.74611l-.00602.00247c-1.54546.5703-3.28972.93114-4.87395,1.1338-1.55179.19525-2.94541.24159-3.84488.24159-.36346,0-.64815-.00741-.83351-.01359l-.20112-.00803-.04001-.00247v.00062c-1.19698-.07476-2.37017.42942-3.14143,1.34758l-.00139-.00124-.09793.11122c-.51453.57709-3.05307,3.27103-7.44014,5.92233-4.39417,2.65501-10.60242,5.27418-18.6249,5.8383-.43097.02966-.8675.04449-1.30804.0451-2.61052.00247-5.44471-.53014-8.20506-1.37971-4.14316-1.2685-8.1008-3.23766-10.97376-4.88492-1.43795-.82301-2.60774-1.56384-3.40665-2.09151-.39961-.26383-.70654-.47453-.90843-.6154l-.22213-.15632-.04912-.03522-.0085-.00618h-.00031c-1.50808-1.0992-3.60035-.93732-4.92029.38308-.32577.32809-.59192.62838-.92697.98798-.97161,1.05471-2.4267,2.51722-4.10408,3.52188l-.18675.11987c-1.8354,1.25985-4.11041,2.49868-6.40968,3.3841-2.29741.89283-4.62371,1.41431-6.48629,1.4069-1.14894,0-2.10355-.18536-2.85257-.50542-.71828-.31326-1.27668-.72538-1.81022-1.39701-.20761-.35528-.20791-.48071-.21796-.59996l.03491-.24406.00726-.02904c.06055-.26569.28206-.76184.73898-1.38033.67426-.93237,1.82412-2.07297,3.08628-3.24878,1.26371-1.19373,2.62906-2.40662,3.81831-3.88767l.00633-.00803c1.4812-1.87401,2.81859-3.92227,3.80456-6.20902.9852-2.28119,1.60586-4.81757,1.60369-7.52262.00015-.70191-.04093-1.41431-.12589-2.13414-.24576-2.08224-2.13275-3.57131-4.21483-3.3254-2.08224.24591-3.57085,2.1329-3.32509,4.21514l-.00015-.00062c.05005.42448.07353.83784.07368,1.24502-.00216,1.55643-.34199,3.02141-.98458,4.51975-.64089,1.49155-1.59721,2.99916-2.78275,4.49689-.39266.49739-1.04374,1.16531-1.8201,1.9012-1.16902,1.11712-2.61098,2.38808-3.95996,3.87963-.67441.74948-1.32997,1.56013-1.90923,2.48138-.12558.20081-.24607.40965-.36377.62158-1.91989,1.06769-3.41731,1.39331-4.66001,1.39825-1.36427-.00556-2.52881-.39606-3.6833-1.09178-1.71815-1.03061-3.26979-2.83419-4.29886-4.4073-.51762-.78161-.91167-1.49464-1.16608-1.99265-.12481-.24406-.21517-.43437-.27217-.55856-.02147-.13655-.0312-.27248-.06828-.40903-.26908-.99045-.37119-1.82335-.37196-2.57901.00633-1.43532.3562-2.66366,1.06104-4.13729.52766-1.09487,1.26433-2.28922,2.12641-3.62383,1.28796-2.00377,2.85659-4.32203,4.20093-7.18959,1.34527-2.86385,2.43612-6.29058,2.77256-10.37967.17393-2.08965-1.37863-3.92474-3.46797-4.09836-2.0895-.17424-3.92428,1.37848-4.09821,3.46813l-.00015-.00062c-.23448,2.7792-.88078,5.01652-1.74658,7.04253-1.29414,3.03685-3.15178,5.58929-4.9362,8.45499-.88495,1.4347-1.74704,2.95777-2.40801,4.68781-.66066,1.72449-1.09935,3.67017-1.09611,5.77589-.00077,1.4656.20791,2.99669.63873,4.57474.01792.06611.05067.12296.07167.1866.04109.33674.11137.67287.24823,1.00157.09299.2039,1.29367,3.11347,3.84565,6.22138,1.28255,1.55025,2.91683,3.16414,5.0156,4.44622,2.08749,1.279,4.69693,2.20458,7.63307,2.19963,1.37848.00247,2.80623-.20452,4.25777-.62282.18845.39111.4044.77173.64707,1.13565l.13547.19278c1.33662,1.79369,3.09879,3.12088,4.98733,3.91671,1.89178.80385,3.87855,1.11094,5.82547,1.11094,3.17448-.00741,6.29398-.79212,9.2207-1.91603,2.92455-1.13071,5.65185-2.61979,7.96656-4.2034l-.00124-.00185c1.71012-1.05842,3.092-2.25462,4.15629-3.28833,1.53171.96079,3.61796,2.18728,6.0907,3.4255,2.61593,1.30804,5.65757,2.6272,8.94157,3.63619,3.28431,1.0059,6.81546,1.71089,10.43343,1.71337.61278,0,1.22571-.02039,1.83787-.06302,10.20173-.71365,18.03498-4.2967,23.28769-7.70675,3.03809-1.97226,5.20312-3.86542,6.54885-5.17161,1.28765,8.31412,1.99697,15.30599,1.99512,21.11586.00046,3.97108-.32562,7.39287-.97902,10.34013-.99107,4.42892-2.65238,7.76915-5.19988,10.6571-2.55244,2.8793-6.10166,5.34832-11.02072,7.5807-3.07748,1.40072-5.93129,2.98495-8.67249,4.1515-2.74599,1.17582-5.31403,1.91912-7.86462,1.91665-1.35206-.00185-2.72035-.19957-4.20603-.68893-1.48398-.49059-3.09123-1.28024-4.86097-2.5129-1.45247-1.01208-3.39908-.88789-4.71237.2972l-.00093-.00124c-.00695.00865-1.25521,1.10847-3.21959,2.14711-1.96901,1.04915-4.61181,2.00686-7.44415,2.00006-.18274-.00062-.36439-.00371-.54543-.01112-3.14436-.13779-5.59918-1.20856-7.88114-2.44617-1.14152-.61911-2.21075-1.27776-3.35985-1.87401-.57787-.29658-1.17968-.5808-1.86938-.81683-.68769-.23232-1.47965-.4251-2.41203-.42757-.74778-.00062-1.42868.12419-2.01813.28978-1.03509.29658-1.82057.6914-2.55398,1.04853-1.0941.54373-2.07405,1.04792-3.26191,1.43903-1.1857.38803-2.57314.67904-4.47109.68275-.7932-.00062-1.67274-.05314-2.65609-.18042-2.09861-.27619-3.61534-.91384-4.81649-1.6905-1.78844-1.16099-2.9071-2.72915-3.58213-4.05017-.33504-.65495-.55207-1.23575-.67673-1.62377-.06241-.19401-.10195-.33921-.1228-.42139l-.01776-.07291-.00386.00062c-.249-1.1925-1.05965-2.20334-2.17461-2.69764-1.12082-.49615-2.4233-.41707-3.47663.20946l-.00093-.00185-.02394.01359c-.13748.07971-.86024.477-1.7855.82239-.92125.35281-2.04903.62344-2.86076.61417-1.5297-.00494-2.79696-.3559-3.95162-.98057-1.71846-.93423-3.21804-2.57407-4.30257-4.79162-1.08236-2.20581-1.70688-4.94856-1.70379-7.78522-.00015-1.64602.20699-3.32355.63162-4.94732,1.16886-4.47526,2.76035-8.82819,4.85603-14.06468.77868-1.94692-.16806-4.15582-2.11452-4.93496-1.94661-.77852-4.15582.16806-4.9345,2.11498l-.00015-.00062c-2.13738,5.34276-3.85955,10.01698-5.15261,14.96616-.59362,2.27316-.878,4.5871-.87815,6.86644.00989,5.22784,1.46575,10.30429,4.39896,14.30874,1.469,1.99512,3.33065,3.7159,5.56458,4.93373,2.22867,1.2203,4.82575,1.9117,7.58673,1.90676,1.71537-.00927,3.227-.34786,4.50832-.75442.34817.65804.75674,1.35376,1.26077,2.07359,1.1233,1.59473,2.68791,3.27597,4.8154,4.66001.55084.3596,1.14291.69449,1.76758,1.00466-3.65133.29164-7.50038,1.00466-11.18306,1.98585-2.42856.65-4.77694,1.41988-6.93456,2.28428-2.09907.8434-4.0097,1.77021-5.67394,2.81133-3.69659,1.93395-6.96684,4.76319-9.92862,8.15718-.04727.05437-.09129.11492-.1384.1693l-16.98259.84649c-.59393-2.23238-1.39022-4.26457-2.42222-6.03725-1.35206-2.32877-3.0489-4.24665-4.92678-5.76292-2.82137-2.27996-6.013-3.65596-9.13636-4.46538-3.12923-.80942-6.21226-1.06583-8.96907-1.06707-3.74849.00371-6.90181.47762-8.73906.82981l-25.49752-29.71297c-3.49593-4.07674-8.47631-6.18492-13.45097-6.17936-4.07411-.00371-8.19981,1.41123-11.53031,4.27198-4.07643,3.49408-6.18415,8.47477-6.17905,13.44989-.00355,4.07426,1.41092,8.20043,4.27183,11.53139l22.65916,26.40548c-.52365.13161-1.11279.29287-1.76897.49862-3.50814,1.10661-8.77382,3.37668-13.29573,8.11207-2.25323,2.36399-4.29407,5.34956-5.745,9.01602-1.45432,3.66523-2.31332,7.99406-2.31147,13.01182,0,3.32355.3732,6.95232,1.18725,10.91661.77543,3.7851,2.17075,7.19144,3.99842,10.19493,3.20291,5.26491,7.68265,9.27739,12.47859,12.35007,7.20689,4.60564,15.17639,7.1729,21.38185,8.6558,1.37014.32562,2.65053.59563,3.82186.82116.90349,1.91232,1.79786,3.80549,2.66273,5.66097,3.31644,7.1,6.20191,13.72361,7.58101,18.79698.46232,1.69174,2.01319,2.8416,3.76625,2.79341,3.0299-.08341,8.12289-.28731,14.24278-.55794l2.5787,7.31193c.01483.04202.03028.08403.04634.12481,1.90506,4.8497,6.10923,8.27643,11.04312,9.28974.17455,1.28765.51546,2.53205,1.02243,3.69304l.06673,1.0127c.07739,1.17643.69727,2.24906,1.67737,2.90525.71473.47823,1.43594.91693,2.15561,1.36427.13748.12419.26692.25518.40795.37567,2.6581,2.25524,5.94642,3.92474,9.68503,5.33164,1.70781.63826,3.52528,1.21474,5.41691,1.75229,3.13911,1.127,6.29861,2.08162,9.46877,2.883,9.23089,2.33371,18.55137,3.51323,27.82768,4.72365l-.00633-.00062c5.8573.77296,11.82411,1.14863,17.91388,1.14801.03738,0,.07554-.00185.11307-.00185,4.24928.24777,8.44758.3664,12.55258.3664,15.13144-.00062,29.03547-1.50947,39.89523-3.30069,5.43065-.89592,10.09839-1.86227,13.79173-2.75387.954-.22985,1.84003-.45476,2.66196-.67287,4.87055.55547,9.83224.84834,14.70588.84896,5.89112,0,11.64601-.41398,16.94938-1.28209,5.30476-.87306,10.15677-2.18789,14.28402-4.08724,2.10046-.96883,3.95718-2.34792,5.56751-3.99703,2.82029-2.89536,4.92678-6.58963,6.60245-10.78006,2.50193-6.2912,4.03843-13.76624,4.99428-21.71026.95014-7.9403,1.29908-16.34216,1.29954-24.39801-.00015-8.80162-.41876-17.18618-.94797-24.06497ZM605.53511,334.9694c.46093-.03707.88943-.16621,1.2858-.34972.30538.78099.50125,1.4829.61216,2.17245.12497.78532.16296,1.5867.16281,2.5129-.00433.30585-.06858.62467-.34153,1.1165-.46047.84711-1.70224,2.10695-3.75807,3.31304-3.06667,1.83014-7.80561,3.54351-13.54582,4.7255-5.74438,1.1925-12.50084,1.88822-19.7156,1.88761-2.577.00185-5.0936-.09021-7.52988-.25889,2.26235-1.38898,5.01822-2.9763,8.18869-4.59451,9.08615-4.64765,21.47685-9.48067,34.64144-10.52487ZM547.27294,328.76223c.22228-.1001.37227-.15447.46727-.18474.27356.08774.93917.4115,1.79369.90271,2.65454,1.48846,7.13305,4.37084,13.44479,4.62912l.00772.00062c.28638.01112.5686.01606.84633.01606,4.65908-.00741,8.53872-1.54716,11.26138-3.02388.82486-.44981,1.53434-.89283,2.14619-1.30186,1.4917.84649,2.97615,1.52677,4.44885,2.01304.3976.13161.79289.23479,1.18833.34107-5.85637,2.00686-11.1568,4.38506-15.66451,6.69467-4.81571,2.47212-8.73381,4.86762-11.47362,6.66439-.74145-2.20149-1.47518-4.1274-2.22018-5.81914-.94828-2.1502-1.91742-3.93833-2.96734-5.4583-1.42281-2.07359-3.06018-3.62322-4.79733-4.73539.63363-.31079,1.15203-.57771,1.51843-.73836ZM533.05071,338.51723c.19849-.47267.65356-1.13998,1.48058-1.88637.79721-.72353,1.93163-1.50638,3.34857-2.26327,1.32179.36702,2.35611.71673,3.1924,1.15975.67781.3596,1.26402.77173,1.90058,1.40258.94581.94164,2.01721,2.43813,3.20136,4.9535.76076,1.61327,1.55998,3.6399,2.4006,6.14229-2.24397-.52952-4.31261-1.13318-6.15496-1.79987-3.43492-1.23019-6.08529-2.69208-7.64527-4.0341-.78424-.66669-1.2878-1.28765-1.55936-1.77021-.2731-.49183-.3372-.81065-.34153-1.1165.00201-.23541.04248-.46711.17702-.78779ZM449.31806,336.42944c2.02199-.00062,4.19892.17486,6.28595.63826,1.56631.34663,3.07964.85328,4.46121,1.54963,2.07637,1.05224,3.8509,2.4888,5.26444,4.59884.6307.94844,1.19327,2.05134,1.65637,3.34208l-11.42388.56906-9.08631-10.5879c.89113-.06735,1.84497-.11122,2.84222-.10998ZM393.95481,318.08351c-1.64586-1.92097-2.43782-4.24294-2.44138-6.58654.0051-2.86632,1.19095-5.6795,3.53038-7.68759,1.9219-1.64664,4.24403-2.43875,6.5867-2.44246,2.86539.00556,5.67827,1.19064,7.68898,3.53177l36.6483,42.70687-13.44819.67039c-3.5035.17424-6.69745,1.82088-8.8614,4.42213l-29.70339-34.61456ZM418.46898,411.66616c-4.98177-1.96855-10.01188-4.70511-13.98899-8.34007-1.99203-1.81717-3.72578-3.85245-5.10843-6.13982-1.38234-2.28984-2.42083-4.83054-3.016-7.72405-.72276-3.51941-1.03231-6.63535-1.03231-9.38984.00649-5.55037,1.23436-9.61783,2.97815-12.74613,1.31329-2.34483,2.94046-4.17498,4.67824-5.63625,2.60079-2.18851,5.46927-3.52188,7.67076-4.28063,1.09889-.38061,2.02647-.61787,2.65562-.75628.3145-.0692.55423-.11369.70345-.13902l.15385-.02533.00602-.00062.01622-.00247-.00015-.00124c.75365-.10133,1.42374-.41954,1.96144-.88047l4.15938,4.84723c-1.65992,5.84015-3.36201,13.65564-3.37298,21.54219.00093,3.42241.32531,6.87015,1.17041,10.19369,1.16747,4.57969,2.94695,9.41023,5.00895,14.34519,1.07603,2.57221,2.24134,5.17037,3.42828,7.7673-2.53298-.66916-5.287-1.52739-8.07191-2.63338ZM447.28695,442.57965c-1.04328-3.16661-2.39905-6.52846-3.9354-10.04726-3.01878-6.90351-6.72448-14.38474-10.06147-21.70408-3.33791-7.31007-6.29676-14.47495-7.82878-20.51467-.64969-2.54564-.9367-5.38292-.93577-8.3203-.01344-8.33883,2.33587-17.39255,4.122-22.89905.59192-1.84312,2.28351-3.13633,4.25036-3.23519l60.84905-3.03253.0397-.00247c.0831-.00494.19092-.00803.32315-.00803,2.93753,0,5.60613,1.78813,6.70795,4.54076l.00232.00618,12.89396,32.00899c-2.23145.71612-4.33423,1.56878-6.22277,2.60002-2.03435,1.12391-3.85554,2.45976-5.28252,4.21452-.70947.87738-1.31298,1.8666-1.73638,2.96394-.34539.89221-.55701,1.85548-.6256,2.8416-1.39192-3.43724-2.55831-6.85902-3.34208-10.2215-.98458-4.2034-1.3221-8.71265-1.32071-13.04766-.00108-5.79319.59331-11.22925.92125-15.37148.16405-2.09027-1.39732-3.91794-3.48728-4.08168-2.09011-.16435-3.91763,1.39701-4.08168,3.48728-.30863,3.95378-.94349,9.67653-.94458,15.96588.00139,4.72118.35497,9.78528,1.51997,14.77585,2.26204,9.63019,6.89841,18.84455,11.32796,27.42003,2.21771,4.28372,4.39077,8.40124,6.21165,12.27408,1.03509,2.1984,1.93503,4.3072,2.68945,6.32271-2.49158.15385-5.51453.32871-8.90882.51654-9.15767.50789-20.8979,1.10538-31.48549,1.60771-8.68438.41212-16.60368.75999-21.65943.93979ZM504.61736,410.58982c1.66347.90457,3.37112,1.39207,5.01915,1.7801,1.17381.27186,2.31394.47947,3.36927.67534-1.5935.63517-3.34038,1.38095-5.00447,2.52958-.4251.29843-.84572.63703-1.25351,1.00961-.95307-1.84683-1.90043-3.70045-2.81643-5.56396-.20745-.42139-.40795-.8434-.61185-1.26541.42417.31635.85993.5944,1.29785.83475ZM537.90844,455.0082c-.62035.70808-1.48537,1.12453-2.43566,1.17273l-59.52417,2.9658c-3.21233.14335-6.18122-1.73499-7.38236-4.7255l-1.79106-5.07831c4.30041-.20081,8.84719-.42077,13.38254-.64691,7.30575-.36455,14.5701-.7433,20.69416-1.08252,6.12762-.33983,11.09872-.63826,13.8804-.84649.4838-.03645.94195-.18042,1.36797-.38679.37474.28669.745.57709,1.14168.84587,3.52559,2.37511,7.91065,4.10207,12.88577,5.28777,2.65207.629,5.48255,1.08561,8.4292,1.38713-.14798.39976-.36115.77852-.64846,1.10723ZM557.90131,445.87107c-3.85615.5635-7.68049.8502-11.35113.8502-7.11699.00371-13.67109-1.02011-18.72824-2.75943-2.52788-.86564-4.67623-1.90738-6.32796-3.02635-1.65776-1.11773-2.79696-2.30035-3.45191-3.39893-.02549-.04263-.03568-.06735-.05669-.10504.12079-.08341.26074-.17424.4305-.2731.3179-.18907.70824-.39853,1.1426-.63641.65371-.36702,1.40026-.75319,2.25262-1.47116.42216-.36516.88711-.83351,1.29522-1.51997.40733-.67472.71766-1.61512.71009-2.57468.00185-.99354-.30168-1.9012-.69403-2.60928-.34694-.62529-.73635-1.03432-1.08916-1.35562-.66947-.58945-1.26525-.91445-1.86768-1.22154-1.04622-.51716-2.13568-.90951-3.26253-1.30248-1.6749-.57648-3.42503-1.13071-4.64101-1.63366-.26723-.10813-.50094-.2144-.69882-.31017.05206-.08218.1659-.22985.40394-.43189.45089-.39173,1.30835-.89777,2.35549-1.36674.78486-.35651,1.67042-.70438,2.57576-1.05533,1.36658-.53693,2.74583-1.03803,4.10052-1.79801.67858-.39297,1.38018-.84649,2.08224-1.62007.34647-.38864.69063-.8712.95446-1.47239.2646-.59625.43066-1.31484.42772-2.03095-.00031-.41892-.05113-.81683-.14458-1.20547l-.00062-.00309c-.18706-.78346-.55053-1.51997-.99524-2.11189-.84803-1.12082-1.86212-1.7455-2.7914-2.19345-.8244-.38926-1.63397-.64877-2.44617-.86873-1.41725-.37814-2.85659-.62652-4.2448-.88665-2.07065-.37443-4.03364-.81374-5.17315-1.34697-.57308-.25765-.90905-.51407-1.04174-.65865-.13315-.15818-.12775-.14891-.17254-.32809-.03259-.17918-.04526-.33365-.04541-.47576.00185-.28299.04603-.51593.14829-.78532.17532-.46217.58358-1.07325,1.3811-1.76218,1.18107-1.03432,3.18761-2.13661,5.68074-3.0418,2.49204-.91445,5.45722-1.65961,8.5622-2.19469,1.4656-.25456,3.16738-.38803,5.02857-.38803,3.78371-.00185,8.21727.54929,12.76266,1.58423,6.82087,1.5453,13.90789,4.18672,19.61195,7.47813,2.85242,1.64169,5.35651,3.44403,7.31363,5.29518,1.08143,1.02011,1.97241,2.04949,2.69903,3.06589-1.39779,4.13111-3.47863,10.28946-5.58775,16.56089l-7.10679,17.38946ZM670.83872,454.5417c-1.15836,5.05236-2.70336,9.45842-4.582,12.76961-.93685,1.65776-1.95063,3.03871-3.00998,4.12184-1.06151,1.08499-2.15762,1.87278-3.31783,2.40909-3.25929,1.50761-7.51706,2.7032-12.33123,3.48914-4.8154.78964-10.1886,1.18261-15.72135,1.18261-12.27346.00989-25.36406-1.95743-35.0134-5.48116-4.82266-1.74611-8.7627-3.89693-11.26756-6.13117-1.25768-1.11403-2.15283-2.22991-2.71386-3.28833-.56088-1.06645-.81559-2.05814-.82023-3.14869.00015-.28546.01915-.57957.05978-.88665.0207-.15756.03275-.33983.03275-.49801.00015-.47885-.08944-.89777-.2022-1.23081-.23248-.66483-.51531-1.02382-.72616-1.28085-.42695-.48565-.68321-.63826-.89623-.79088-.40085-.2626-.66082-.38246-.95245-.52149-.52952-.24406-1.10584-.47082-1.79199-.72724-2.37048-.88047-5.99184-2.04393-9.19722-3.04859-.98211-.30708-1.90923-.59378-2.75263-.8539.62606-1.92591,1.47687-4.50122,2.45343-7.43488,1.2203-3.66585,2.6323-7.8779,4.03858-12.05967l6.88729-16.85253c.10581-.25951.17594-.52705.22259-.79768l12.67971,4.96833c.14736.05746.16652.06426.31851.10875l29.894,8.7491c.35327.10319.71365.13593,1.07325.1347l13.48387,16.855c1.30974,1.63675,3.6986,1.90244,5.33581.59254s1.90259-3.6986.59285-5.33596l-14.755-18.44355c-.23325-.29164-.50944-.52334-.80092-.72662.03939-2.3541.08125-5.74685.08125-9.603,0-4.40174-.05422-9.39169-.23047-14.10484-.17887-4.72118-1.3618-15.90841-1.36149-17.85039-.00602-5.3131,1.03587-11.64693,3.51045-17.2665,1.23436-2.81318,2.81813-5.45089,4.77988-7.74629,1.96407-2.29602,4.29809-4.25407,7.09861-5.75735,1.92746-1.02814,3.65396-1.42914,5.33859-1.4347,1.29707.00124,2.58689.249,3.91408.74701,2.31579.86564,4.73832,2.54317,7.05999,4.88368,3.48806,3.50026,6.70193,8.44758,9.18594,13.76377,2.49189,5.31248,4.2692,11.00064,5.06518,15.901.40857,2.49559,1.03988,7.75,1.55457,14.4527.51685,6.71321.92588,14.92105.92573,23.48232.0051,11.93177-.80895,24.57843-3.14251,34.69056Z"/><polygon class="cls-3" points="523.12162 428.34506 523.12239 428.34691 523.12332 428.34815 523.12162 428.34506"/></svg>